PathFileType	4	(X/Y/Z)	Patient4_TMGait_0pt5_01_right_32.trc.trc
DataRate	CameraRate	NumFrames	NumMarkers	Units	OrigDataRate	OrigDataStartFrame	OrigNumFrames
75.268817204301	75.268817204301	4	33	mm	75.268817204301	53	       141
Frame#	Time	L.ASIS			Sacral			L.Shoulder			Chest			R.Shoulder			Neck			R.ASIS			R.Thigh.Superior			R.Thigh.Lateral			R.Thigh.Inferior			R.Patella			L.Thigh.Superior			L.Thigh.Lateral			L.Thigh.Inferior			L.Patella			L.Shank.Superior			L.Shank.Lateral			L.Shank.Inferior			R.Shank.Superior			R.Shank.Lateral			R.Shank.Inferior			R.Heel			R.Midfoot.Superior			R.Midfoot.Lateral			R.Toe			L.Heel			L.Midfoot.Lateral			L.Midfoot.Superior			L.Toe			L.Elbow			L.Wrist			R.Elbow			R.Wrist			
		X1	Y1	Z1	X2	Y2	Z2	X3	Y3	Z3	X4	Y4	Z4	X5	Y5	Z5	X6	Y6	Z6	X7	Y7	Z7	X8	Y8	Z8	X9	Y9	Z9	X10	Y10	Z10	X11	Y11	Z11	X12	Y12	Z12	X13	Y13	Z13	X14	Y14	Z14	X15	Y15	Z15	X16	Y16	Z16	X17	Y17	Z17	X18	Y18	Z18	X19	Y19	Z19	X20	Y20	Z20	X21	Y21	Z21	X22	Y22	Z22	X23	Y23	Z23	X24	Y24	Z24	X25	Y25	Z25	X26	Y26	Z26	X27	Y27	Z27	X28	Y28	Z28	X29	Y29	Z29	X30	Y30	Z30	X31	Y31	Z31	X32	Y32	Z32	X33	Y33	Z33	

53	42.760857142857	848.839139568278	964.411762878741	383.750419035414	647.854526340799	1019.655487658970	551.978599787327	847.755556000621	1436.895118804019	372.027285303620	954.151734025948	1353.033214205709	523.314747551962	891.539420367797	1430.452788484882	705.034413341513	868.265075469244	1494.323990657611	522.954247940656	874.390099731430	938.601070344911	656.419069239406	905.324950487645	738.210061831762	624.987498966930	821.666063254273	634.122275530434	683.723166357138	893.605881479534	579.390906633896	600.166251400598	890.469010718946	490.916272668803	605.329040588897	923.395154661269	779.993190579077	413.150195880778	876.093375108518	656.764911966497	333.069971419174	973.548682387071	591.979197476071	398.696894184252	996.260376301146	517.193886449275	391.258663000544	962.655810827052	444.049698533978	379.921962754990	865.660224046776	337.680728841612	325.046781102303	919.923610954719	218.922229497259	380.781565042674	859.502327715845	404.367712809597	611.739005281207	784.700812878141	302.423684306114	670.604936676021	823.812852214508	207.192924524484	606.330486114266	683.523645723235	45.664667597035	569.796684438715	854.164407791598	96.898405219881	612.293723704264	764.332089116831	37.038128863636	647.660515442297	972.938870665602	40.017490638558	644.974608849573	792.030688801417	59.622451739899	412.802862768708	863.948712331942	59.597338440145	330.895137448477	948.243816055700	120.527050473827	355.597975437947	1073.275542824781	70.848976861420	321.514128473935	738.920260297533	1094.307620279048	268.403929309721	737.129179483042	834.203154502971	259.972277552209	965.859506385316	1097.084426157688	823.107722847306	1213.030377361188	1037.164737744251	785.181761338588	
54	42.774142857143	846.566951248936	964.079873202252	382.935611048806	646.456967795137	1019.874593044473	552.408636941677	846.015543688587	1437.130536856427	371.911780094612	953.033582952665	1352.792195767739	522.508952104084	891.343816987435	1429.903951590319	704.679575378817	867.292249246569	1494.205584373366	522.917661924133	873.382355608158	938.535654723914	655.611474287818	902.496385786309	737.568277017189	624.254412003757	818.104818688436	634.067007006741	683.605549653922	889.227580735413	578.634623118309	599.975335125591	885.105805516619	490.538405193339	605.132304183805	919.702456658561	779.009818784801	412.338863216680	872.431433786721	656.348111670240	331.743002527439	969.277557016210	591.264213316836	398.143487000181	993.037360706051	518.485541202958	390.785301003265	962.979599296887	445.825607540091	379.082533602094	872.482351922533	334.260078915634	323.404987459186	933.015386721513	218.522675929419	379.673801409447	854.060570459398	404.057407143010	611.640352934746	778.981612850148	302.383790664125	670.582605507314	817.645985082003	206.984783931737	606.304705716665	676.879719970001	45.680358181782	569.885584168932	847.459917914985	96.821428731114	612.258153844927	757.663463642222	37.024286879174	647.701573104460	966.243478482211	39.948167250868	645.040549004113	813.558396792950	52.952479031719	411.154346950484	886.497175417484	55.557967408621	330.058743687237	967.545734007092	120.763486960389	355.061915148198	1095.350920587468	76.702450558428	322.968857772389	732.443913616082	1096.133612512295	268.689169044426	728.853003838525	836.054127512311	259.701488723367	968.086143521603	1097.553269978333	822.554399511422	1216.510347987645	1047.133033271232	781.886084304983	
55	42.787428571429	844.346852355699	963.698222922919	381.972667475306	645.037386227437	1020.034955673717	552.631984621485	844.189991933601	1437.365477123107	371.643155975527	951.808958603436	1352.578701831188	521.573943494505	890.948177554704	1429.337563423496	704.169354914655	866.178796394160	1494.082357946939	522.726801370128	872.395519356749	938.474796164488	654.689125078056	899.735551046322	736.917455048436	623.528911584794	814.508235839979	634.001304549102	683.388148852020	884.875436887455	577.858107393953	599.766875408338	879.758908380766	490.169610659034	604.869809429271	915.983277980788	777.900142575955	411.423931774785	868.792914873133	655.846268151011	330.320817266270	965.041466601409	590.411169237042	397.462519880903	989.658368815094	519.540036424342	390.327899024627	962.939959345776	447.541022898217	378.243782433166	878.801884782417	331.407348722288	321.854717868360	945.054045904842	218.866314074954	378.674148912435	848.618273498706	403.751886825179	611.480545494093	773.263982253294	302.357817057997	670.516458343262	811.478220713466	206.783626556662	606.255904867963	670.223886400792	45.687416431270	569.978391650070	840.751245574623	96.738883761394	612.211025884999	750.987447593706	37.004300979907	647.743804366724	959.545325174248	39.884286686309	645.100727564029	833.663722521885	48.060730060021	409.730535168192	907.544204472270	52.826341354170	329.475040192010	985.480181463718	121.764347037175	354.673618366437	1115.570215872252	82.744399681547	324.683710824830	726.337464975335	1097.894156842092	268.788366800873	721.559748062007	837.800514854117	259.161883875677	970.005524301810	1097.899203849411	821.677662773698	1219.225542609713	1056.485639695721	778.358100767494	
56	42.800714285714	842.190309372724	963.308352911650	380.876616844045	643.609143141665	1020.153789064525	552.652427636387	842.291536174849	1437.600792252708	371.202555424722	950.488757151344	1352.409410049381	520.500799888735	890.369813359892	1428.795178195130	703.485747366762	864.931845577359	1493.970095545571	522.355320676207	871.415435790550	938.426720993889	653.652519019896	896.983467803585	736.260755852248	622.790290130503	810.829014971827	633.942951735762	683.078382004358	880.477194167080	577.073816525559	599.533845972166	874.367614273589	489.818029861518	604.551085208961	912.362600923149	776.782563828469	410.425253321771	865.272326858682	655.310975152610	328.869629966017	960.980890863640	589.507124659717	396.658286778624	986.265859734162	520.410522203106	389.879611546270	962.615134438226	449.179023418535	377.391947191718	884.490753191693	329.126340524348	320.439824477575	955.880567700673	219.819419473017	377.748006011158	843.118088242404	403.465195343989	611.266850801333	767.497159460386	302.353154184275	670.413098727848	805.282249930707	206.603276978506	606.191701320671	663.551440835520	45.685278179607	570.071321027345	834.037528289212	96.654471256450	612.157370564785	744.301663675087	36.978684145872	647.788586772063	952.843222064896	39.829471230722	645.154247900556	851.994247905113	44.790010629731	408.568915387737	926.692195346745	51.235192916530	329.105673863934	1001.777065255113	123.336948744628	354.340114117291	1133.679816895261	88.688173293180	326.401678893394	720.684030195157	1099.551836687001	268.668572880492	715.267593948422	839.401416561764	258.361592972375	971.595877478241	1098.157762611550	820.475491851211	1221.218164673749	1065.187882727092	774.622080766494	
